<svg xmlns="http://www.w3.org/2000/svg" viewBox="0 0 256 256"><path fill="#B71C1C" d="M238.76,51.73A8,8,0,0,0,232,48H40a8,8,0,0,0-5.66,13.66L76.69,104,34.34,146.34A8,8,0,0,0,40,160H173.62l-28.84,60.56a8,8,0,1,0,14.44,6.88l80-168A8,8,0,0,0,238.76,51.73ZM181.23,144H59.31l34.35-34.34a8,8,0,0,0,0-11.32L59.31,64h160Z"/><path fill="#F44336" d="M238.76,11.73A8,8,0,0,0,232,8H40a8,8,0,0,0-5.66,13.66L76.69,54,34.34,96.34A8,8,0,0,0,40,110H232a8,8,0,0,0,6.76-12.27ZM59.31,94l34.35-34.34a8,8,0,0,0,0-11.32L59.31,14h160L165.23,94Z"/></svg>
